<svg xmlns="http://www.w3.org/2000/svg" viewBox="0 0 12192000.00 6858000.00" preserveAspectRatio="xMidYMid meet">
<g transform="translate(1796890.00 2053210.00) scale(1.000000 1.000000)"><path d="M1807871.00,1400718.00 L94358.00,1400718.00 C42236.00,1400718.00 0.00,1358482.00 0.00,1306361.00 L0.00,0.00" fill="none" stroke="#9C9B9B" stroke-width="23289" stroke-dasharray="90000 85000" stroke-linejoin="round"/></g>
<g transform="translate(1796890.00 3453928.00) scale(1.000000 1.000000)"><path d="M1807871.00,0.00 L94358.00,0.00 C42236.00,0.00 0.00,42236.00 0.00,94358.00 L0.00,1200920.00" fill="none" stroke="#9C9B9B" stroke-width="23289" stroke-dasharray="90000 85000" stroke-linejoin="round"/></g>
<g transform="translate(5667636.00 5033444.00) scale(1.000000 1.000000)"><path d="M53430.00,0.00 L5669.00,0.00 C942.00,0.00 -1687.00,5425.00 1209.00,9153.00 L25073.00,39706.00 C27336.00,42602.00 31729.00,42602.00 33993.00,39706.00 L57857.00,9153.00 C60752.00,5425.00 58123.00,0.00 53397.00,0.00 Z" fill="#9C9B9B" stroke="none" stroke-width="0" stroke-linejoin="round"/></g>
<g transform="translate(5667702.00 4957051.00) scale(1.000000 1.000000)"><path d="M5635.00,41878.00 L53397.00,41878.00 C58123.00,41878.00 60752.00,36453.00 57856.00,32725.00 L33993.00,2172.00 C31729.00,-724.00 27336.00,-724.00 25073.00,2172.00 L1209.00,32725.00 C-1687.00,36453.00 942.00,41878.00 5669.00,41878.00 Z" fill="#9C9B9B" stroke="none" stroke-width="0" stroke-linejoin="round"/></g>
<g transform="translate(5695970.00 3718829.00) scale(1.000000 1.000000)"><path d="M0.00,0.00 L0.00,1919868.00 C0.00,1971989.00 42236.00,2014226.00 94357.00,2014226.00 L741946.00,2014226.00" fill="none" stroke="#9C9B9B" stroke-width="23289" stroke-dasharray="90000 85000" stroke-linejoin="round"/></g>
<g transform="translate(5664307.00 1818489.00) scale(1.000000 1.000000)"><path d="M53430.00,41879.00 L5669.00,41879.00 C942.00,41879.00 -1687.00,36453.00 1209.00,32726.00 L25073.00,2172.00 C27336.00,-724.00 31729.00,-724.00 33993.00,2172.00 L57857.00,32726.00 C60752.00,36453.00 58123.00,41879.00 53397.00,41879.00 Z" fill="#9C9B9B" stroke="none" stroke-width="0" stroke-linejoin="round"/></g>
<g transform="translate(5664374.00 1894882.00) scale(1.000000 1.000000)"><path d="M5635.00,0.00 L53397.00,0.00 C58123.00,0.00 60752.00,5425.00 57856.00,9153.00 L33993.00,39707.00 C31729.00,42602.00 27336.00,42602.00 25073.00,39707.00 L1209.00,9153.00 C-1687.00,5425.00 942.00,0.00 5669.00,0.00 Z" fill="#9C9B9B" stroke="none" stroke-width="0" stroke-linejoin="round"/></g>
<g transform="translate(5695970.00 1214077.00) scale(1.000000 1.000000)"><path d="M0.00,2007536.00 L0.00,94358.00 C0.00,42236.00 42236.00,0.00 94357.00,0.00 L775263.00,0.00" fill="none" stroke="#9C9B9B" stroke-width="23289" stroke-dasharray="90000 85000" stroke-linejoin="round"/></g>
<g transform="translate(3424558.00 3419351.00) scale(2.045780 2.045752)"><path d="M53430.00,0.00 L5669.00,0.00 C943.00,0.00 -1687.00,5425.00 1209.00,9153.00 L25073.00,39707.00 C27336.00,42602.00 31729.00,42602.00 33993.00,39707.00 L57857.00,9153.00 C60752.00,5425.00 58123.00,0.00 53397.00,0.00 Z" fill="#9C9B9B" stroke="none" stroke-width="0" stroke-linejoin="round"/></g>
<g transform="translate(5080532.00 2913993.00) scale(2.045769 2.045737)"><path d="M19924.00,46996.00 L48947.00,9087.00 C51809.00,5326.00 49114.00,-66.00 44387.00,1.00 L5612.00,400.00 C1918.00,433.00 -744.00,3928.00 187.00,7489.00 L9939.00,44999.00 C11137.00,49559.00 17062.00,50757.00 19924.00,47030.00 Z" fill="#9C9B9B" stroke="none" stroke-width="0" stroke-linejoin="round"/></g>
<g transform="translate(7856068.00 3419351.00) scale(2.045780 2.045752)"><path d="M5636.00,0.00 L53397.00,0.00 C58123.00,0.00 60753.00,5425.00 57857.00,9153.00 L33993.00,39707.00 C31730.00,42602.00 27336.00,42602.00 25073.00,39707.00 L1209.00,9153.00 C-1687.00,5425.00 943.00,0.00 5669.00,0.00 Z" fill="#9C9B9B" stroke="none" stroke-width="0" stroke-linejoin="round"/></g>
<g transform="translate(6228385.00 3929979.00) scale(2.045782 2.045842)"><path d="M48470.00,12700.00 L16086.00,47781.00 C12891.00,51242.00 7099.00,49511.00 6334.00,44852.00 L77.00,6576.00 C-523.00,2948.00 2473.00,-280.00 6134.00,19.00 L44776.00,3181.00 C49469.00,3581.00 51666.00,9205.00 48470.00,12667.00 Z" fill="#9C9B9B" stroke="none" stroke-width="0" stroke-linejoin="round"/></g>
<g transform="translate(6219688.00 2910306.00) scale(2.045779 2.045790)"><path d="M29572.00,47364.00 L1115.00,9022.00 C-1681.00,5228.00 1115.00,-131.00 5808.00,2.00 L44583.00,968.00 C48277.00,1068.00 50873.00,4596.00 49908.00,8124.00 L39590.00,45500.00 C38325.00,50060.00 32401.00,51159.00 29572.00,47364.00 Z" fill="#9C9B9B" stroke="none" stroke-width="0" stroke-linejoin="round"/></g>
<g transform="translate(5075382.00 3925673.00) scale(2.045779 2.045790)"><path d="M29572.00,47364.00 L1115.00,9022.00 C-1681.00,5228.00 1115.00,-131.00 5808.00,2.00 L44582.00,967.00 C48277.00,1067.00 50873.00,4596.00 49908.00,8123.00 L39590.00,45500.00 C38325.00,50060.00 32401.00,51159.00 29572.00,47364.00 Z" fill="#9C9B9B" stroke="none" stroke-width="0" stroke-linejoin="round"/></g>
<g transform="translate(1767324.00 4065738.00) scale(1.000000 1.000000)"><path d="M53430.00,0.00 L5669.00,0.00 C943.00,0.00 -1687.00,5425.00 1209.00,9153.00 L25073.00,39706.00 C27336.00,42602.00 31730.00,42602.00 33993.00,39706.00 L57857.00,9153.00 C60752.00,5425.00 58123.00,0.00 53397.00,0.00 Z" fill="#9C9B9B" stroke="none" stroke-width="0" stroke-linejoin="round"/></g>
<g transform="translate(1767390.00 3989345.00) scale(1.000000 1.000000)"><path d="M5636.00,41878.00 L53397.00,41878.00 C58123.00,41878.00 60752.00,36453.00 57857.00,32725.00 L33993.00,2172.00 C31730.00,-724.00 27336.00,-724.00 25073.00,2172.00 L1209.00,32725.00 C-1687.00,36453.00 943.00,41878.00 5669.00,41878.00 Z" fill="#9C9B9B" stroke="none" stroke-width="0" stroke-linejoin="round"/></g>
<g transform="translate(1767324.00 2921799.00) scale(1.000000 1.000000)"><path d="M53430.00,0.00 L5669.00,0.00 C943.00,0.00 -1687.00,5425.00 1209.00,9153.00 L25073.00,39707.00 C27336.00,42602.00 31730.00,42602.00 33993.00,39707.00 L57857.00,9153.00 C60752.00,5425.00 58123.00,0.00 53397.00,0.00 Z" fill="#9C9B9B" stroke="none" stroke-width="0" stroke-linejoin="round"/></g>
<g transform="translate(1767390.00 2845406.00) scale(1.000000 1.000000)"><path d="M5636.00,41878.00 L53397.00,41878.00 C58123.00,41878.00 60752.00,36453.00 57857.00,32726.00 L33993.00,2172.00 C31730.00,-724.00 27336.00,-724.00 25073.00,2172.00 L1209.00,32726.00 C-1687.00,36453.00 943.00,41878.00 5669.00,41878.00 Z" fill="#9C9B9B" stroke="none" stroke-width="0" stroke-linejoin="round"/></g>
<g transform="translate(4518781.00 2162462.00) scale(1.000000 1.000000)"><path d="M977191.00,2548070.00 L204758.00,2102110.00 C78049.00,2028953.00 0.00,1893757.00 0.00,1747445.00 L0.00,855492.00 C0.00,709179.00 78049.00,573983.00 204758.00,500827.00 L977191.00,54867.00 C1103900.00,-18289.00 1259998.00,-18289.00 1386707.00,54867.00 L2159140.00,500827.00 C2285849.00,573983.00 2363898.00,709179.00 2363898.00,855492.00 L2363898.00,1747445.00 C2363898.00,1893757.00 2285849.00,2028953.00 2159140.00,2102110.00 L1386707.00,2548070.00 C1259998.00,2621226.00 1103900.00,2621226.00 977191.00,2548070.00 Z" fill="none" stroke="#ECECEC" stroke-width="13308" stroke-dasharray="90000 85000" stroke-linejoin="round"/></g>
<g transform="translate(4399244.00 2281998.00) scale(1.000000 1.000000)"><path d="M2548070.00,1386706.00 L2102110.00,2159140.00 C2028954.00,2285849.00 1893758.00,2363898.00 1747445.00,2363898.00 L855492.00,2363898.00 C709179.00,2363898.00 573984.00,2285849.00 500827.00,2159140.00 L54867.00,1386706.00 C-18289.00,1259998.00 -18289.00,1103900.00 54867.00,977191.00 L500827.00,204758.00 C573984.00,78049.00 709179.00,0.00 855492.00,0.00 L1747445.00,0.00 C1893758.00,0.00 2028954.00,78049.00 2102110.00,204758.00 L2548070.00,977191.00 C2621226.00,1103900.00 2621226.00,1259998.00 2548070.00,1386706.00 Z" fill="none" stroke="#ECECEC" stroke-width="13308" stroke-dasharray="90000 85000" stroke-linejoin="round"/></g>
<g transform="translate(5979509.00 2633933.00) scale(1.000000 1.000000)"><path d="M21634.00,536590.00 C294888.00,297751.00 714322.00,0.00 1106929.00,0.00 C1565337.00,0.00 1936943.00,371606.00 1936943.00,830014.00 C1936943.00,1288421.00 1565337.00,1660027.00 1106929.00,1660027.00 C703804.00,1660027.00 272422.00,1346101.00 0.00,1104399.00" fill="none" stroke="#9C9B9B" stroke-width="23289" stroke-dasharray="90000 85000" stroke-linejoin="round"/></g>
<g transform="translate(3485008.00 2633933.00) scale(1.000000 1.000000)"><path d="M1915308.00,536590.00 C1642054.00,297751.00 1222621.00,0.00 830014.00,0.00 C371606.00,0.00 0.00,371606.00 0.00,830014.00 C0.00,1288421.00 371606.00,1660027.00 830014.00,1660027.00 C1233138.00,1660027.00 1664521.00,1346101.00 1936943.00,1104399.00" fill="none" stroke="#9C9B9B" stroke-width="23289" stroke-dasharray="90000 85000" stroke-linejoin="round"/></g>
</svg>
